<svg width="200" height="160" viewBox="0 0 200 160" xmlns="http://www.w3.org/2000/svg">
  <defs>
    <linearGradient id="festivalGradient" x1="0%" y1="0%" x2="100%" y2="100%">
      <stop offset="0%" style="stop-color:#f59e0b;stop-opacity:0.8"/>
      <stop offset="50%" style="stop-color:#ec4899;stop-opacity:0.6"/>
      <stop offset="100%" style="stop-color:#8b5cf6;stop-opacity:0.7"/>
    </linearGradient>
    <radialGradient id="celebrationGlow" cx="50%" cy="50%" r="60%">
      <stop offset="0%" style="stop-color:#fbbf24;stop-opacity:0.6"/>
      <stop offset="100%" style="stop-color:#ec4899;stop-opacity:0.2"/>
    </radialGradient>
  </defs>
  
  <!-- Background -->
  <rect width="200" height="160" fill="url(#festivalGradient)" rx="16"/>
  
  <!-- Musical notes -->
  <g fill="#ffffff" opacity="0.9">
    <!-- Quarter note -->
    <circle cx="60" cy="80" r="4" fill="#ffffff"/>
    <rect x="63" y="60" width="2" height="20" fill="#ffffff"/>
    
    <!-- Eighth notes -->
    <circle cx="90" cy="70" r="3" fill="#ffffff"/>
    <rect x="92" y="50" width="1.5" height="20" fill="#ffffff"/>
    <circle cx="105" cy="75" r="3" fill="#ffffff"/>
    <rect x="107" y="55" width="1.5" height="20" fill="#ffffff"/>
    <path d="M93 50 Q100 45 108 55" stroke="#ffffff" stroke-width="1.5" fill="none"/>
    
    <!-- Treble clef -->
    <path d="M130 60 Q135 50 140 60 Q145 70 140 80 Q135 90 130 80 Q125 70 130 60" 
          stroke="#ffffff" stroke-width="2" fill="none" opacity="0.8"/>
  </g>
  
  <!-- Festival decorations -->
  <g opacity="0.7">
    <!-- Colorful bunting -->
    <polygon points="20,30 30,30 25,40" fill="#f59e0b"/>
    <polygon points="30,30 40,30 35,40" fill="#ec4899"/>
    <polygon points="40,30 50,30 45,40" fill="#8b5cf6"/>
    <polygon points="150,30 160,30 155,40" fill="#22c55e"/>
    <polygon points="160,30 170,30 165,40" fill="#06b6d4"/>
    <polygon points="170,30 180,30 175,40" fill="#f59e0b"/>
    
    <!-- Bunting strings -->
    <line x1="20" y1="30" x2="180" y2="30" stroke="#ffffff" stroke-width="1" opacity="0.6"/>
  </g>
  
  <!-- Sound waves -->
  <g stroke="#ffffff" fill="none" opacity="0.6">
    <path d="M40 100 Q60 95 80 100 Q100 105 120 100 Q140 95 160 100" stroke-width="2"/>
    <path d="M45 110 Q65 105 85 110 Q105 115 125 110 Q145 105 165 110" stroke-width="1.5"/>
    <path d="M50 120 Q70 115 90 120 Q110 125 130 120 Q150 115 170 120" stroke-width="1"/>
  </g>
  
  <!-- Celebration sparkles -->
  <g fill="#fbbf24" opacity="0.8">
    <polygon points="30,60 32,64 36,64 33,67 34,71 30,68 26,71 27,67 24,64 28,64" transform="scale(0.6)"/>
    <polygon points="170,80 172,84 176,84 173,87 174,91 170,88 166,91 167,87 164,84 168,84" transform="scale(0.5)"/>
    <polygon points="50,120 52,124 56,124 53,127 54,131 50,128 46,131 47,127 44,124 48,124" transform="scale(0.4)"/>
  </g>
  
  <!-- Additional sparkles -->
  <circle cx="160" cy="50" r="1.5" fill="#ec4899" opacity="0.7"/>
  <circle cx="40" cy="45" r="1" fill="#8b5cf6" opacity="0.8"/>
  <circle cx="180" cy="70" r="1.2" fill="#22c55e" opacity="0.6"/>
  <circle cx="25" cy="90" r="1" fill="#06b6d4" opacity="0.7"/>
  
  <!-- Musical staff lines -->
  <g stroke="#ffffff" stroke-width="0.5" opacity="0.4">
    <line x1="120" y1="90" x2="180" y2="90"/>
    <line x1="120" y1="95" x2="180" y2="95"/>
    <line x1="120" y1="100" x2="180" y2="100"/>
    <line x1="120" y1="105" x2="180" y2="105"/>
    <line x1="120" y1="110" x2="180" y2="110"/>
  </g>
  
  <!-- Festival lanterns -->
  <ellipse cx="170" cy="120" rx="8" ry="12" fill="#f59e0b" opacity="0.6"/>
  <rect x="168" y="108" width="4" height="3" fill="#ec4899" opacity="0.8"/>
  <ellipse cx="30" cy="125" rx="6" ry="10" fill="#8b5cf6" opacity="0.6"/>
  <rect x="28" y="115" width="4" height="3" fill="#22c55e" opacity="0.8"/>
  
  <!-- Rhythmic dots -->
  <circle cx="75" cy="50" r="2" fill="#ec4899" opacity="0.7"/>
  <circle cx="125" cy="45" r="2" fill="#8b5cf6" opacity="0.7"/>
  <circle cx="100" cy="130" r="2" fill="#f59e0b" opacity="0.7"/>
  
  <!-- Celebration confetti -->
  <rect x="85" y="25" width="2" height="6" fill="#ec4899" opacity="0.6" transform="rotate(45 86 28)"/>
  <rect x="140" y="35" width="2" height="6" fill="#22c55e" opacity="0.6" transform="rotate(-30 141 38)"/>
  <rect x="65" y="135" width="2" height="6" fill="#06b6d4" opacity="0.6" transform="rotate(60 66 138)"/>
</svg>