<svg width="200" height="160" viewBox="0 0 200 160" xmlns="http://www.w3.org/2000/svg">
  <defs>
    <linearGradient id="flowGradient" x1="0%" y1="0%" x2="100%" y2="100%">
      <stop offset="0%" style="stop-color:#22c55e;stop-opacity:0.8"/>
      <stop offset="50%" style="stop-color:#86f4ae;stop-opacity:0.6"/>
      <stop offset="100%" style="stop-color:#22c55e;stop-opacity:0.4"/>
    </linearGradient>
    <radialGradient id="centerGlow" cx="50%" cy="50%" r="50%">
      <stop offset="0%" style="stop-color:#22c55e;stop-opacity:0.3"/>
      <stop offset="100%" style="stop-color:#22c55e;stop-opacity:0.1"/>
    </radialGradient>
  </defs>
  
  <!-- Background -->
  <rect width="200" height="160" fill="url(#centerGlow)" rx="16"/>
  
  <!-- Dynamic flow patterns -->
  <path d="M30 80 Q100 40 170 80 Q100 120 30 80" fill="none" stroke="url(#flowGradient)" stroke-width="8" opacity="0.8"/>
  <path d="M50 60 Q100 30 150 60 Q100 90 50 60" fill="none" stroke="url(#flowGradient)" stroke-width="6" opacity="0.6"/>
  <path d="M40 100 Q100 70 160 100 Q100 130 40 100" fill="none" stroke="url(#flowGradient)" stroke-width="4" opacity="0.7"/>
  
  <!-- Movement arrows -->
  <path d="M160 75 L170 80 L160 85 M165 80 L175 80" stroke="#22c55e" stroke-width="2" fill="none" opacity="0.9"/>
  <path d="M40 85 L30 80 L40 75 M35 80 L25 80" stroke="#22c55e" stroke-width="2" fill="none" opacity="0.9"/>
  
  <!-- Energy dots -->
  <circle cx="100" cy="80" r="4" fill="#22c55e" opacity="0.9"/>
  <circle cx="70" cy="65" r="2" fill="#86f4ae" opacity="0.8"/>
  <circle cx="130" cy="95" r="2" fill="#86f4ae" opacity="0.8"/>
  <circle cx="85" cy="105" r="1.5" fill="#22c55e" opacity="0.7"/>
  <circle cx="115" cy="55" r="1.5" fill="#22c55e" opacity="0.7"/>
</svg>