<svg width="200" height="160" viewBox="0 0 200 160" xmlns="http://www.w3.org/2000/svg">
  <defs>
    <linearGradient id="sunriseGradient" x1="0%" y1="100%" x2="0%" y2="0%">
      <stop offset="0%" style="stop-color:#f59e0b;stop-opacity:0.8"/>
      <stop offset="50%" style="stop-color:#ffd48a;stop-opacity:0.6"/>
      <stop offset="100%" style="stop-color:#fef3c7;stop-opacity:0.4"/>
    </linearGradient>
    <radialGradient id="sunGlow" cx="50%" cy="30%" r="40%">
      <stop offset="0%" style="stop-color:#ffd48a;stop-opacity:0.9"/>
      <stop offset="100%" style="stop-color:#f59e0b;stop-opacity:0.2"/>
    </radialGradient>
  </defs>
  
  <!-- Background -->
  <rect width="200" height="160" fill="url(#sunriseGradient)" rx="16"/>
  
  <!-- Sun -->
  <circle cx="100" cy="50" r="20" fill="url(#sunGlow)" opacity="0.9"/>
  <circle cx="100" cy="50" r="12" fill="#ffd48a" opacity="0.8"/>
  
  <!-- Sun rays -->
  <line x1="100" y1="20" x2="100" y2="10" stroke="#f59e0b" stroke-width="2" opacity="0.7"/>
  <line x1="121" y1="29" x2="128" y2="22" stroke="#f59e0b" stroke-width="2" opacity="0.7"/>
  <line x1="130" y1="50" x2="140" y2="50" stroke="#f59e0b" stroke-width="2" opacity="0.7"/>
  <line x1="121" y1="71" x2="128" y2="78" stroke="#f59e0b" stroke-width="2" opacity="0.7"/>
  <line x1="79" y1="71" x2="72" y2="78" stroke="#f59e0b" stroke-width="2" opacity="0.7"/>
  <line x1="70" y1="50" x2="60" y2="50" stroke="#f59e0b" stroke-width="2" opacity="0.7"/>
  <line x1="79" y1="29" x2="72" y2="22" stroke="#f59e0b" stroke-width="2" opacity="0.7"/>
  
  <!-- Meditation figure silhouette -->
  <ellipse cx="100" cy="120" rx="15" ry="8" fill="#f59e0b" opacity="0.6"/>
  <circle cx="100" cy="105" r="6" fill="#f59e0b" opacity="0.7"/>
  <path d="M100 111 L100 125" stroke="#f59e0b" stroke-width="3" opacity="0.7"/>
  <path d="M85 115 Q100 110 115 115" stroke="#f59e0b" stroke-width="2" fill="none" opacity="0.6"/>
  
  <!-- Breath waves -->
  <path d="M40 90 Q60 85 80 90 Q100 95 120 90 Q140 85 160 90" stroke="#ffd48a" stroke-width="1.5" fill="none" opacity="0.8"/>
  <path d="M45 100 Q65 95 85 100 Q105 105 125 100 Q145 95 165 100" stroke="#ffd48a" stroke-width="1.5" fill="none" opacity="0.6"/>
  
  <!-- Peaceful dots -->
  <circle cx="50" cy="70" r="1.5" fill="#ffd48a" opacity="0.8"/>
  <circle cx="150" cy="75" r="1.5" fill="#ffd48a" opacity="0.8"/>
  <circle cx="75" cy="140" r="1" fill="#f59e0b" opacity="0.7"/>
  <circle cx="125" cy="135" r="1" fill="#f59e0b" opacity="0.7"/>
</svg>